<svg width="44" height="45" viewBox="0 0 44 45" fill="none" xmlns="http://www.w3.org/2000/svg">
<g filter="url(#filter0_d_700_700)">
<path d="M16.302 10.8162C14.4565 13.5086 13.9217 17.0331 15.1799 20.3109L15.394 20.8689C17.4268 26.1643 23.3676 28.8093 28.663 26.7766C29.099 26.6092 29.5156 26.4125 29.9146 26.1947C28.7787 27.8514 27.1479 29.194 25.1308 29.9683C19.8354 32.001 13.8946 29.356 11.8618 24.0606L11.6477 23.5026C9.78268 18.6438 11.8569 13.2442 16.302 10.8162Z" fill="#FFD914"/>
<path d="M22 16L22.6735 18.0729L24.8532 18.0729L23.0898 19.3541L23.7634 21.4271L22 20.1459L20.2366 21.4271L20.9102 19.3541L19.1468 18.0729L21.3265 18.0729L22 16Z" fill="#FFD914"/>
</g>
<defs>
<filter id="filter0_d_700_700" x="0.962891" y="0.816162" width="42.9517" height="43.8369" filterUnits="userSpaceOnUse" color-interpolation-filters="sRGB">
<feFlood flood-opacity="0" result="BackgroundImageFix"/>
<feColorMatrix in="SourceAlpha" type="matrix" values="0 0 0 0 0 0 0 0 0 0 0 0 0 0 0 0 0 0 127 0" result="hardAlpha"/>
<feOffset dx="2" dy="2"/>
<feGaussianBlur stdDeviation="6"/>
<feComposite in2="hardAlpha" operator="out"/>
<feColorMatrix type="matrix" values="0 0 0 0 1 0 0 0 0 1 0 0 0 0 1 0 0 0 0.25 0"/>
<feBlend mode="normal" in2="BackgroundImageFix" result="effect1_dropShadow_700_700"/>
<feBlend mode="normal" in="SourceGraphic" in2="effect1_dropShadow_700_700" result="shape"/>
</filter>
</defs>
</svg>
